HIERARCHY
ROOT Hips
{
	OFFSET 0.00000 0.00000 0.00000
	CHANNELS 6 Xposition Yposition Zposition Zrotation Yrotation Xrotation 
	JOINT LHipJoint
	{
		OFFSET 0 0 0
		CHANNELS 3 Zrotation Yrotation Xrotation
		JOINT LeftUpLeg
		{
			OFFSET 1.64577 -1.42384 0.94276
			CHANNELS 3 Zrotation Yrotation Xrotation
			JOINT LeftLeg
			{
				OFFSET 2.11538 -5.81197 0.00000
				CHANNELS 3 Zrotation Yrotation Xrotation
				JOINT LeftFoot
				{
					OFFSET 2.36541 -6.49893 0.00000
					CHANNELS 3 Zrotation Yrotation Xrotation
					JOINT LeftToeBase
					{
						OFFSET 0.17759 -0.48793 1.73865
						CHANNELS 3 Zrotation Yrotation Xrotation
						End Site
						{
							OFFSET 0.00000 -0.00000 0.91205
						}
					}
				}
			}
		}
	}
	JOINT RHipJoint
	{
		OFFSET 0 0 0
		CHANNELS 3 Zrotation Yrotation Xrotation
		JOINT RightUpLeg
		{
			OFFSET -1.43750 -1.42384 0.94276
			CHANNELS 3 Zrotation Yrotation Xrotation
			JOINT RightLeg
			{
				OFFSET -2.10480 -5.78291 0.00000
				CHANNELS 3 Zrotation Yrotation Xrotation
				JOINT RightFoot
				{
					OFFSET -2.34880 -6.45329 0.00000
					CHANNELS 3 Zrotation Yrotation Xrotation
					JOINT RightToeBase
					{
						OFFSET -0.22842 -0.62757 1.80469
						CHANNELS 3 Zrotation Yrotation Xrotation
						End Site
						{
							OFFSET -0.00000 -0.00000 0.95886
						}
					}
				}
			}
		}
	}
	JOINT LowerBack
	{
		OFFSET 0 0 0
		CHANNELS 3 Zrotation Yrotation Xrotation
		JOINT Spine
		{
			OFFSET 0.06217 1.93758 -0.49272
			CHANNELS 3 Zrotation Yrotation Xrotation
			JOINT Spine1
			{
				OFFSET -0.03114 2.03621 -0.05830
				CHANNELS 3 Zrotation Yrotation Xrotation
				JOINT Neck
				{
					OFFSET 0 0 0
					CHANNELS 3 Zrotation Yrotation Xrotation
					JOINT Neck1
					{
						OFFSET 0.04421 1.41010 0.26562
						CHANNELS 3 Zrotation Yrotation Xrotation
						JOINT Head
						{
							OFFSET -0.13407 1.43847 0.06181
							CHANNELS 3 Zrotation Yrotation Xrotation
							End Site
							{
								OFFSET -0.04980 1.45844 -0.00689
							}
						}
					}
				}
				JOINT LeftShoulder
				{
					OFFSET 0 0 0
					CHANNELS 3 Zrotation Yrotation Xrotation
					JOINT LeftArm
					{
						OFFSET 2.18382 1.47753 -0.35694
						CHANNELS 3 Zrotation Yrotation Xrotation
						JOINT LeftForeArm
						{
							OFFSET 5.05460 -0.00000 0.00000
							CHANNELS 3 Zrotation Yrotation Xrotation
							JOINT LeftHand
							{
								OFFSET 3.39013 -0.00000 0.00000
								CHANNELS 3 Zrotation Yrotation Xrotation
								JOINT LeftFingerBase
								{
									OFFSET 0 0 0
									CHANNELS 3 Zrotation Yrotation Xrotation
									JOINT LeftHandIndex1
									{
										OFFSET 0.57242 -0.00000 -0.00000
										CHANNELS 3 Zrotation Yrotation Xrotation
										End Site
										{
											OFFSET 0.46150 -0.00000 -0.00000
										}
									}
								}
								JOINT LThumb
								{
									OFFSET 0 0 0
									CHANNELS 3 Zrotation Yrotation Xrotation
									End Site
									{
										OFFSET 0.46855 -0.00000 0.46855
									}
								}
							}
						}
					}
				}
				JOINT RightShoulder
				{
					OFFSET 0 0 0
					CHANNELS 3 Zrotation Yrotation Xrotation
					JOINT RightArm
					{
						OFFSET -2.06033 1.72839 -0.47437
						CHANNELS 3 Zrotation Yrotation Xrotation
						JOINT RightForeArm
						{
							OFFSET -5.07010 -0.00000 0.00000
							CHANNELS 3 Zrotation Yrotation Xrotation
							JOINT RightHand
							{
								OFFSET -3.14957 -0.00000 -0.00000
								CHANNELS 3 Zrotation Yrotation Xrotation
								JOINT RightFingerBase
								{
									OFFSET 0 0 0
									CHANNELS 3 Zrotation Yrotation Xrotation
									JOINT RightHandIndex1
									{
										OFFSET -0.71819 -0.00000 -0.00000
										CHANNELS 3 Zrotation Yrotation Xrotation
										End Site
										{
											OFFSET -0.57902 -0.00000 -0.00000
										}
									}
								}
								JOINT RThumb
								{
									OFFSET 0 0 0
									CHANNELS 3 Zrotation Yrotation Xrotation
									End Site
									{
										OFFSET -0.58786 -0.00000 0.58786
									}
								}
							}
						}
					}
				}
			}
		}
	}
}
MOTION
Frames: 6
Frame Time: .0083333
-24.4137 15.1145 3.0682 0 0 0 0 0 0 -21 0 0 0 0 0 0 0 0 0 0 0 0 0 0 21 0 0 0 0 0 0 0 0 0 0 0 0 0 0 0 0 0 0 0 0 0 0 -16 0 0 21 0 0 11 0 0 0 -8 0 0 0 0 0 0 0 0 0 0 0 0 0 0 0 0 0 0 0 0 8 0 0 0 0 0 0 0 0 0 0 0 0 0 0 0 0 0
-24.4137 15.1145 3.0682 -177.9840 2.4337 176.0110 0.0000 0.0000 0.0000 -23.9019 -18.8959 4.9677 2.0140 8.8952 25.4680 1.0450 16.6290 -31.4788 0.0042 -0.4191 -1.1515 0.0000 0.0000 0.0000 26.9222 15.5123 2.6134 -1.9906 -8.8465 25.3164 -1.3433 -18.2207 -34.8308 -1.0380 6.4798 -18.1830 -0.6555 1.0677 5.3532 -0.8537 1.6917 4.1662 -0.5756 0.9665 1.2925 6.5167 3.7646 -5.6660 -4.1555 4.7369 3.8820 -2.3057 2.3431 2.5329 0.0000 0.0000 0.0000 -87.3214 -6.0098 19.0080 19.1159 -29.5625 -5.0879 -0.0000 0.0000 -1.3072 25.1370 11.5630 5.3731 -7.1250 0.0000 -0.0000 -1.8331 42.7075 0.1037 0.0000 0.0000 0.0000 91.4061 -1.2259 16.0212 -18.4422 28.7197 -4.7598 0.0000 -0.0000 -16.6252 -15.2590 0.5800 -0.1582 7.1250 -0.0000 -0.0000 8.8346 -29.3252 3.4123
-24.4191 15.1148 3.0681 -177.9700 2.3279 176.0530 0.0000 0.0000 0.0000 -23.8762 -18.8680 4.8777 2.0087 8.8843 25.4339 0.9764 16.8055 -31.2216 0.0128 -0.7311 -2.0093 0.0000 0.0000 0.0000 26.8676 15.4213 2.5061 -1.9931 -8.8517 25.3325 -1.3166 -18.2965 -34.7555 -1.0766 6.5955 -18.5225 -0.5995 1.0736 5.2635 -0.8563 1.6983 4.1421 -0.6079 0.9692 1.3191 6.4895 3.7069 -5.8006 -4.0196 4.6489 4.0775 -2.2576 2.3028 2.6126 -0.0000 0.0000 0.0000 -87.2336 -5.8658 21.2639 19.5474 -30.0932 -5.3025 -0.0000 0.0000 -0.2237 24.2489 10.4186 4.6569 -7.1250 0.0000 -0.0000 -2.4941 41.3685 0.2236 -0.0000 0.0000 0.0000 91.4183 -1.6202 16.5568 -18.8393 29.2185 -4.9522 0.0000 -0.0000 -16.9271 -15.3643 0.6521 -0.1792 7.1250 -0.0000 -0.0000 8.7465 -29.2520 3.3930
-24.4237 15.1155 3.0676 -178.0250 2.1901 176.0620 0.0000 0.0000 0.0000 -23.9353 -18.8546 4.8462 2.0017 8.8695 25.3880 0.9550 16.8031 -31.0815 0.0148 -0.7867 -2.1621 0.0000 0.0000 0.0000 26.7607 15.3242 2.4359 -2.0004 -8.8669 25.3797 -1.3028 -18.3712 -34.7513 -1.1073 6.6859 -18.7880 -0.5763 1.0598 5.1780 -0.9208 1.6825 4.1446 -0.6843 0.9626 1.3717 6.5531 3.6704 -5.7862 -3.9164 4.5895 4.0824 -2.2375 2.2774 2.6065 -0.0000 -0.0000 0.0000 -87.1043 -5.9270 23.0394 19.6844 -30.2602 -5.3714 -0.0000 -0.0000 1.1080 23.0360 9.0614 3.8313 -7.1250 0.0000 -0.0000 -3.4060 39.7894 0.4380 -0.0000 -0.0000 0.0000 91.5424 -1.9688 17.0162 -19.1995 29.6659 -5.1292 0.0000 -0.0000 -17.3052 -15.5577 0.9845 -0.2741 7.1250 -0.0000 -0.0000 8.5688 -28.9120 3.3926
-24.4256 15.1144 3.0670 -178.1540 2.0266 176.0180 0.0000 0.0000 0.0000 -24.0772 -18.8273 4.8545 2.0015 8.8693 25.3872 0.9690 16.6706 -31.0353 0.0151 -0.7936 -2.1811 0.0000 0.0000 0.0000 26.6479 15.3593 2.5300 -2.0006 -8.8672 25.3809 -1.3413 -18.3680 -34.9637 -1.0492 6.5136 -18.2821 -0.6969 1.0208 5.1016 -0.9760 1.6330 4.1893 -0.6688 0.9380 1.4585 6.5826 3.6629 -5.8164 -3.8179 4.5691 4.0770 -2.2104 2.2702 2.6065 0.0000 0.0000 0.0000 -87.0308 -6.1612 24.6116 19.6237 -30.1863 -5.3409 -0.0000 -0.0000 1.7887 21.8009 8.0867 3.2205 -7.1250 0.0000 -0.0000 -4.3638 38.6459 0.6845 0.0000 0.0000 0.0000 91.6896 -2.2093 17.3355 -19.5239 30.0644 -5.2907 0.0000 -0.0000 -17.5138 -15.7266 1.0947 -0.3082 7.1250 -0.0000 -0.0000 8.4292 -28.7994 3.3590
-24.4268 15.1120 3.0661 -178.1580 1.8316 175.9750 0.0000 0.0000 0.0000 -24.0897 -18.8378 4.8699 2.0058 8.8781 25.4148 1.0063 16.4479 -31.0486 0.0109 -0.6744 -1.8532 0.0000 0.0000 0.0000 26.7038 15.4531 2.6885 -1.9956 -8.8569 25.3486 -1.3929 -18.3987 -35.2791 -0.9719 6.2762 -17.5879 -0.7535 0.9654 5.0340 -0.9483 1.5606 4.2265 -0.6038 0.9008 1.5319 6.5397 3.6477 -5.8369 -3.7877 4.5495 4.0965 -2.1931 2.2606 2.6132 0.0000 -0.0000 0.0000 -87.1012 -6.5527 25.8628 19.3373 -29.8357 -5.1976 -0.0000 -0.0000 2.1473 20.5542 7.6412 2.8543 -7.1250 0.0000 -0.0000 -5.3783 38.0833 0.9191 0.0000 -0.0000 0.0000 91.8014 -2.4081 17.4137 -19.7803 30.3768 -5.4198 0.0000 -0.0000 -17.3484 -15.5203 0.9521 -0.2644 7.1250 -0.0000 -0.0000 8.6004 -28.9451 3.3986
